<svg width="37" height="31" viewBox="0 0 37 31" fill="none" xmlns="http://www.w3.org/2000/svg">
<path d="M30.4748 12.9753C30.4748 8.26111 30.4748 5.90523 28.7227 4.44004C26.9706 2.97484 24.1526 2.97607 18.5152 2.97607H15.5253C9.88782 2.97607 7.06834 2.97607 5.31775 4.44004C3.56717 5.904 3.56567 8.26111 3.56567 12.9753C3.56567 17.6895 3.56567 20.0454 5.31775 21.5106C6.02038 22.0974 6.89343 22.4493 8.05052 22.6596" stroke="#111111" stroke-opacity="0.6" stroke-width="1.875" stroke-linecap="round" stroke-linejoin="round"/>
<path d="M33.4647 22.0443C33.4647 19.7376 33.4647 18.5849 32.7516 17.7754C32.5211 17.5144 32.2421 17.2848 31.9249 17.0951C30.9412 16.5083 29.5405 16.5083 26.7374 16.5083H19.2627C16.4596 16.5083 15.0589 16.5083 14.0752 17.0951C13.758 17.2848 13.479 17.5144 13.2485 17.7754C12.5354 18.5861 12.5354 19.7389 12.5354 22.0443C12.5354 24.3497 12.5354 25.5037 13.2485 26.3132C13.4794 26.5743 13.7589 26.8039 14.0767 26.9935C15.0589 27.5803 16.4596 27.5803 19.2627 27.5803H26.7374C29.5405 27.5803 30.9412 27.5803 31.9249 26.9935C32.2421 26.8038 32.5211 26.5742 32.7516 26.3132C33.4647 25.5037 33.4647 24.351 33.4647 22.0443Z" stroke="#111111" stroke-opacity="0.6" stroke-width="1.875" stroke-linecap="round" stroke-linejoin="round"/>
<path d="M25.2424 20.1992L26.6178 21.1748C27.1963 21.5844 27.4848 21.7899 27.4848 22.0445C27.4848 22.2992 27.1963 22.5046 26.6178 22.9143L25.2424 23.8899M20.7576 20.1992L19.3822 21.1748C18.8037 21.5844 18.5151 21.7899 18.5151 22.0445C18.5151 22.2992 18.8037 22.5046 19.3822 22.9143L20.7576 23.8899M4.31311 7.89697H29.7273" stroke="#111111" stroke-opacity="0.6" stroke-width="1.875" stroke-linecap="round" stroke-linejoin="round"/>
</svg>
