<svg width="36" height="31" viewBox="0 0 36 31" fill="none" xmlns="http://www.w3.org/2000/svg">
<path d="M22.0788 3.65576C24.5224 3.65576 25.7442 3.65576 26.6781 4.05804C27.4991 4.41188 28.1666 4.97645 28.585 5.67086C29.0606 6.46067 29.0606 7.49405 29.0606 9.56082V21.4767C29.0606 23.5435 29.0606 24.5769 28.585 25.3667C28.1664 26.0607 27.4989 26.6248 26.6781 26.9783C25.7442 27.3818 24.5224 27.3818 22.0788 27.3818H14.2243C11.7806 27.3818 10.5588 27.3818 9.62498 26.9795C8.80394 26.6257 8.13642 26.0611 7.71807 25.3667C7.24243 24.5769 7.24243 23.5435 7.24243 21.4767V9.56082C7.24243 7.49405 7.24243 6.46067 7.71807 5.67086C8.13667 4.97691 8.80416 4.41278 9.62498 4.05927C10.5588 3.65576 11.7806 3.65576 14.2243 3.65576H22.0788Z" stroke="#111111" stroke-opacity="0.6" stroke-width="1.875" stroke-linecap="round" stroke-linejoin="round"/>
</svg>
