<svg width="30" height="30" viewBox="0 0 30 30" fill="none" xmlns="http://www.w3.org/2000/svg">
<path d="M3.125 11.25H26.875M16.25 16.25H21.25M16.25 21.25H18.75M8.75 7.5H8.76125M13.75 7.5H13.7612M11.25 11.25V26.875M3.125 15C3.125 9.4025 3.125 6.6025 4.86375 4.86375C6.6025 3.125 9.40125 3.125 15 3.125C20.5975 3.125 23.3975 3.125 25.1362 4.86375C26.875 6.6025 26.875 9.40125 26.875 15C26.875 20.5975 26.875 23.3975 25.1362 25.1362C23.3975 26.875 20.5988 26.875 15 26.875C9.4025 26.875 6.6025 26.875 4.86375 25.1362C3.125 23.3975 3.125 20.5988 3.125 15Z" stroke="#111111" stroke-opacity="0.6" stroke-width="1.875" stroke-linecap="round" stroke-linejoin="round"/>
</svg>
