<svg width="50" height="50" viewBox="0 0 50 50" fill="none" xmlns="http://www.w3.org/2000/svg">
<path d="M14.2855 5.09377C16.6667 6.82919 18.5209 9.19794 20.1042 11.4646L21.0251 12.8063L21.8938 14.0875C22.3284 14.7224 22.5142 15.4949 22.4158 16.2579C22.3174 17.021 21.9418 17.7211 21.3605 18.225L17.2959 21.2438C17.0995 21.3856 16.9613 21.5938 16.9069 21.8299C16.8525 22.0659 16.8856 22.3136 17.0001 22.5271C17.9209 24.2 19.5584 26.6917 21.4334 28.5667C23.3084 30.4417 25.9188 32.1875 27.7084 33.2125C27.9328 33.3385 28.1969 33.3737 28.4464 33.3109C28.696 33.2481 28.912 33.0922 29.0501 32.875L31.6959 28.8479C32.1823 28.2018 32.8999 27.7689 33.6983 27.64C34.4968 27.5111 35.3141 27.6961 35.9792 28.1563L37.3605 29.1125C39.9417 30.9042 42.7146 32.9396 44.8355 35.6542C45.1718 36.0871 45.3858 36.6024 45.455 37.1462C45.5243 37.69 45.4463 38.2425 45.2292 38.7459C43.4855 42.8146 39.073 46.2792 34.4834 46.1104L33.8584 46.075L33.373 46.0334L32.8355 45.9709L32.2501 45.8917L31.6146 45.7875L31.2813 45.725L30.5813 45.575L30.2146 45.4917L29.4521 45.2959L28.6501 45.0667L27.8126 44.7959C23.9667 43.4917 19.0855 40.9292 14.0771 35.9209C9.0688 30.9125 6.50839 26.0334 5.20422 22.1875L4.93339 21.35L4.70422 20.5479L4.50839 19.7854L4.34589 19.0646C4.29901 18.8388 4.25525 18.6124 4.21464 18.3854L4.11047 17.75L4.02714 17.1646L3.96672 16.6271L3.92505 16.1417L3.89172 15.5167C3.72297 10.9417 7.22505 6.49794 11.2751 4.76252C11.7625 4.55204 12.2963 4.4719 12.8241 4.52997C13.3518 4.58804 13.8554 4.78233 14.2855 5.09377ZM31.2334 12.5834L31.4751 12.6104C32.9915 12.8779 34.3844 13.6187 35.454 14.7264C36.5236 15.8342 37.215 17.2522 37.4292 18.7771C37.5056 19.3046 37.3769 19.8412 37.0696 20.2767C36.7624 20.7122 36.2999 21.0133 35.7774 21.1182C35.2548 21.2231 34.712 21.1237 34.2605 20.8405C33.809 20.5574 33.4831 20.1119 33.3501 19.5959L33.3021 19.3563C33.2183 18.7586 32.9632 18.1979 32.5676 17.7421C32.172 17.2862 31.6529 16.9547 31.073 16.7875L30.7501 16.7146C30.2269 16.6219 29.759 16.3328 29.4419 15.9065C29.1249 15.4802 28.9827 14.9488 29.0444 14.4212C29.1062 13.8935 29.3672 13.4093 29.7741 13.0677C30.1809 12.7261 30.703 12.5528 31.2334 12.5834ZM31.2501 6.25002C34.5653 6.25002 37.7447 7.56698 40.0889 9.91119C42.4331 12.2554 43.7501 15.4348 43.7501 18.75C43.7495 19.281 43.5461 19.7918 43.1816 20.1779C42.8171 20.564 42.3189 20.7963 41.7888 20.8275C41.2587 20.8586 40.7368 20.6861 40.3296 20.3453C39.9224 20.0045 39.6607 19.5211 39.598 18.9938L39.5834 18.75C39.5832 16.6345 38.7784 14.5983 37.3322 13.0543C35.8861 11.5102 33.9068 10.574 31.7959 10.4354L31.2501 10.4167C30.6975 10.4167 30.1676 10.1972 29.7769 9.80649C29.3862 9.41579 29.1667 8.88589 29.1667 8.33335C29.1667 7.78082 29.3862 7.25092 29.7769 6.86022C30.1676 6.46952 30.6975 6.25002 31.2501 6.25002Z" fill="#111111"/>
</svg>
