<svg width="30" height="30" viewBox="0 0 30 30" fill="none" xmlns="http://www.w3.org/2000/svg">
<path d="M28.125 24.375H26.25V15.9375L26.5242 16.2117C26.7004 16.3876 26.9393 16.4863 27.1883 16.4861C27.4373 16.4859 27.676 16.3868 27.852 16.2105C28.0279 16.0343 28.1266 15.7954 28.1264 15.5464C28.1261 15.2974 28.027 15.0587 27.8508 14.8828L16.3254 3.36094C15.9738 3.00957 15.4971 2.81219 15 2.81219C14.5029 2.81219 14.0262 3.00957 13.6746 3.36094L2.14922 14.8828C1.97346 15.0587 1.87478 15.2973 1.87489 15.5459C1.875 15.7946 1.97389 16.033 2.1498 16.2088C2.32572 16.3845 2.56425 16.4832 2.81291 16.4831C3.06158 16.483 3.30002 16.3841 3.47578 16.2082L3.75 15.9375V24.375H1.875C1.62636 24.375 1.3879 24.4738 1.21209 24.6496C1.03627 24.8254 0.9375 25.0639 0.9375 25.3125C0.9375 25.5611 1.03627 25.7996 1.21209 25.9754C1.3879 26.1512 1.62636 26.25 1.875 26.25H28.125C28.3736 26.25 28.6121 26.1512 28.7879 25.9754C28.9637 25.7996 29.0625 25.5611 29.0625 25.3125C29.0625 25.0639 28.9637 24.8254 28.7879 24.6496C28.6121 24.4738 28.3736 24.375 28.125 24.375ZM5.625 14.0625L15 4.6875L24.375 14.0625V24.375H18.75V17.8125C18.75 17.5639 18.6512 17.3254 18.4754 17.1496C18.2996 16.9738 18.0611 16.875 17.8125 16.875H12.1875C11.9389 16.875 11.7004 16.9738 11.5246 17.1496C11.3488 17.3254 11.25 17.5639 11.25 17.8125V24.375H5.625V14.0625ZM16.875 24.375H13.125V18.75H16.875V24.375Z" fill="#111111" fill-opacity="0.6"/>
</svg>
