<svg width="36" height="31" viewBox="0 0 36 31" fill="none" xmlns="http://www.w3.org/2000/svg">
<path d="M17.9394 3.41357C15.1345 3.41357 12.3926 4.11705 10.0604 5.43504C7.72821 6.75303 5.91049 8.62634 4.8371 10.8181C3.76371 13.0098 3.48287 15.4215 4.03007 17.7483C4.57728 20.075 5.92797 22.2123 7.91133 23.8897C9.8947 25.5672 12.4217 26.7096 15.1727 27.1724C17.9237 27.6352 20.7752 27.3977 23.3665 26.4899C25.9579 25.582 28.1728 24.0446 29.7311 22.0721C31.2895 20.0996 32.1212 17.7806 32.1212 15.4082C32.1172 12.2281 30.6218 9.17915 27.9631 6.93044C25.3043 4.68173 21.6994 3.41693 17.9394 3.41357ZM17.9394 25.5576C15.566 25.5576 13.2459 24.9623 11.2726 23.8471C9.29916 22.7319 7.76109 21.1468 6.85284 19.2922C5.94459 17.4377 5.70695 15.397 6.16997 13.4282C6.63299 11.4594 7.77588 9.65098 9.45411 8.23158C11.1323 6.81217 13.2705 5.84554 15.5983 5.45392C17.9261 5.06231 20.3389 5.2633 22.5316 6.03148C24.7243 6.79966 26.5985 8.10052 27.917 9.76957C29.2356 11.4386 29.9394 13.4009 29.9394 15.4082C29.9358 18.0991 28.6703 20.6788 26.4207 22.5815C24.171 24.4842 21.1209 25.5545 17.9394 25.5576ZM20.1212 20.9442C20.1212 21.1889 20.0063 21.4236 19.8017 21.5967C19.5971 21.7697 19.3196 21.8669 19.0303 21.8669C18.4516 21.8669 17.8967 21.6725 17.4875 21.3264C17.0784 20.9803 16.8485 20.511 16.8485 20.0216V15.4082C16.5592 15.4082 16.2817 15.311 16.0771 15.138C15.8725 14.965 15.7576 14.7303 15.7576 14.4856C15.7576 14.2409 15.8725 14.0062 16.0771 13.8331C16.2817 13.6601 16.5592 13.5629 16.8485 13.5629C17.4271 13.5629 17.9821 13.7573 18.3913 14.1034C18.8004 14.4495 19.0303 14.9188 19.0303 15.4082V20.0216C19.3196 20.0216 19.5971 20.1188 19.8017 20.2918C20.0063 20.4648 20.1212 20.6995 20.1212 20.9442ZM15.7576 10.3336C15.7576 10.0598 15.8535 9.79226 16.0334 9.56466C16.2132 9.33706 16.4687 9.15967 16.7677 9.05492C17.0667 8.95017 17.3958 8.92276 17.7132 8.97616C18.0306 9.02957 18.3222 9.16138 18.551 9.35493C18.7799 9.54849 18.9357 9.7951 18.9989 10.0636C19.062 10.332 19.0296 10.6103 18.9057 10.8632C18.7819 11.1161 18.5722 11.3322 18.3031 11.4843C18.034 11.6364 17.7176 11.7176 17.3939 11.7176C16.9599 11.7176 16.5437 11.5718 16.2369 11.3122C15.93 11.0527 15.7576 10.7006 15.7576 10.3336Z" fill="#111111" fill-opacity="0.6"/>
</svg>
