<svg width="70" height="70" viewBox="0 0 70 70" fill="none" xmlns="http://www.w3.org/2000/svg">
<path d="M53.9583 8.75H46.6666C46.2798 8.75 45.9089 8.90365 45.6354 9.17714C45.3619 9.45063 45.2083 9.82156 45.2083 10.2083V10.3804L55.4166 18.5471V10.2083C55.4166 9.82156 55.2629 9.45063 54.9894 9.17714C54.716 8.90365 54.345 8.75 53.9583 8.75Z" fill="#111111"/>
<path d="M31.3542 27.7083C31.3542 26.7414 31.7384 25.8141 32.4221 25.1303C33.1058 24.4466 34.0331 24.0625 35.0001 24.0625C35.967 24.0625 36.8943 24.4466 37.5781 25.1303C38.2618 25.8141 38.6459 26.7414 38.6459 27.7083C38.6459 28.6753 38.2618 29.6026 37.5781 30.2863C36.8943 30.9701 35.967 31.3542 35.0001 31.3542C34.0331 31.3542 33.1058 30.9701 32.4221 30.2863C31.7384 29.6026 31.3542 28.6753 31.3542 27.7083Z" fill="#111111"/>
<path fill-rule="evenodd" clip-rule="evenodd" d="M60.5207 31.9667L62.8016 33.7925C63.2556 34.1464 63.8309 34.307 64.4025 34.2395C64.9742 34.172 65.4963 33.882 65.8555 33.4322C66.2147 32.9824 66.3822 32.4091 66.3215 31.8367C66.2609 31.2642 65.9771 30.7388 65.5316 30.3742L41.8337 11.4159C39.8941 9.86379 37.484 9.01819 34.9999 9.01819C32.5158 9.01819 30.1057 9.86379 28.1662 11.4159L4.46825 30.3742C4.01495 30.7366 3.72419 31.2642 3.65991 31.841C3.59564 32.4178 3.76314 32.9965 4.12554 33.4498C4.48795 33.9031 5.01559 34.1939 5.59238 34.2582C6.16917 34.3224 6.74787 34.1549 7.20117 33.7925L9.47908 31.9667V61.9792H5.83325C5.25309 61.9792 4.69669 62.2097 4.28646 62.6199C3.87622 63.0301 3.64575 63.5865 3.64575 64.1667C3.64575 64.7468 3.87622 65.3032 4.28646 65.7135C4.69669 66.1237 5.25309 66.3542 5.83325 66.3542H64.1666C64.7467 66.3542 65.3031 66.1237 65.7134 65.7135C66.1236 65.3032 66.3541 64.7468 66.3541 64.1667C66.3541 63.5865 66.1236 63.0301 65.7134 62.6199C65.3031 62.2097 64.7467 61.9792 64.1666 61.9792H60.5207V31.9667ZM26.9791 27.7084C26.9791 25.5811 27.8241 23.541 29.3283 22.0368C30.8325 20.5326 32.8727 19.6875 34.9999 19.6875C37.1272 19.6875 39.1673 20.5326 40.6715 22.0368C42.1757 23.541 43.0207 25.5811 43.0207 27.7084C43.0207 29.8356 42.1757 31.8757 40.6715 33.3799C39.1673 34.8841 37.1272 35.7292 34.9999 35.7292C32.8727 35.7292 30.8325 34.8841 29.3283 33.3799C27.8241 31.8757 26.9791 29.8356 26.9791 27.7084ZM35.1458 38.6459C37.0824 38.6459 38.7537 38.6459 40.0924 38.8267C41.5274 39.0192 42.9012 39.4538 44.0153 40.5679C45.1295 41.6821 45.5641 43.0559 45.7566 44.4909C45.9258 45.745 45.9374 47.2909 45.9374 49.0788V61.9792H41.5624V49.5834C41.5624 47.46 41.5566 46.0834 41.4224 45.0742C41.2941 44.1263 41.0899 43.8288 40.9207 43.6625C40.7516 43.4963 40.457 43.2892 39.5091 43.1609C38.497 43.0267 37.1232 43.0209 34.9999 43.0209C32.8766 43.0209 31.4999 43.0267 30.4908 43.1609C29.5428 43.2892 29.2453 43.4963 29.0791 43.6625C28.9128 43.8288 28.7058 44.1263 28.5774 45.0742C28.4433 46.0863 28.4374 47.46 28.4374 49.5834V61.9792H24.0624V49.4375C24.0624 47.5009 24.0624 45.8296 24.2433 44.4909C24.4358 43.0559 24.8703 41.6821 25.9845 40.5679C27.0987 39.4538 28.4753 39.0192 29.9074 38.8267C31.2462 38.6459 32.9174 38.6459 34.857 38.6459H35.1458Z" fill="#111111"/>
<path d="M31.3542 27.7083C31.3542 26.7414 31.7384 25.8141 32.4221 25.1303C33.1058 24.4466 34.0331 24.0625 35.0001 24.0625C35.967 24.0625 36.8943 24.4466 37.5781 25.1303C38.2618 25.8141 38.6459 26.7414 38.6459 27.7083C38.6459 28.6753 38.2618 29.6026 37.5781 30.2863C36.8943 30.9701 35.967 31.3542 35.0001 31.3542C34.0331 31.3542 33.1058 30.9701 32.4221 30.2863C31.7384 29.6026 31.3542 28.6753 31.3542 27.7083Z" fill="#111111"/>
</svg>
