<svg width="50" height="50" viewBox="0 0 50 50" fill="none" xmlns="http://www.w3.org/2000/svg">
<g clip-path="url(#clip0_7_9)">
<path d="M25 48.2143C31.1568 48.2143 37.0614 45.7685 41.415 41.415C45.7685 37.0614 48.2143 31.1568 48.2143 25C48.2143 18.8432 45.7685 12.9385 41.415 8.58501C37.0614 4.23149 31.1568 1.78571 25 1.78571C18.8432 1.78571 12.9385 4.23149 8.58501 8.58501C4.23149 12.9385 1.78571 18.8432 1.78571 25C1.78571 31.1568 4.23149 37.0614 8.58501 41.415C12.9385 45.7685 18.8432 48.2143 25 48.2143Z" stroke="#111111" stroke-width="3.57143" stroke-linecap="round" stroke-linejoin="round"/>
<path d="M35.7143 35.7143L29.5357 29.5357M23.2143 32.1428C25.5823 32.1428 27.8533 31.2022 29.5277 29.5277C31.2022 27.8533 32.1429 25.5823 32.1429 23.2143C32.1429 20.8463 31.2022 18.5753 29.5277 16.9008C27.8533 15.2264 25.5823 14.2857 23.2143 14.2857C20.8463 14.2857 18.5753 15.2264 16.9008 16.9008C15.2264 18.5753 14.2857 20.8463 14.2857 23.2143C14.2857 25.5823 15.2264 27.8533 16.9008 29.5277C18.5753 31.2022 20.8463 32.1428 23.2143 32.1428Z" stroke="#111111" stroke-width="3.57143" stroke-linecap="round" stroke-linejoin="round"/>
</g>
<defs>
<clipPath id="clip0_7_9">
<rect width="50" height="50" fill="white"/>
</clipPath>
</defs>
</svg>
