<svg width="37" height="30" viewBox="0 0 37 30" fill="none" xmlns="http://www.w3.org/2000/svg">
<path d="M4.37356 11.2068L17.8281 17.6039C18.0554 17.7119 18.3132 17.7687 18.5756 17.7687C18.838 17.7687 19.0958 17.7119 19.3231 17.6039L32.7776 11.2068C33.0035 11.0994 33.1914 10.9453 33.3225 10.7597C33.4537 10.5741 33.5235 10.3635 33.5251 10.1488C33.5261 9.93199 33.4575 9.71884 33.3263 9.53089C33.195 9.34294 33.0057 9.18686 32.7776 9.07848L19.3231 2.69363C19.0958 2.58565 18.838 2.52881 18.5756 2.52881C18.3132 2.52881 18.0554 2.58565 17.8281 2.69363L4.37356 9.07848C4.14542 9.18686 3.95614 9.34294 3.82488 9.53089C3.69362 9.71884 3.62504 9.93199 3.62608 10.1488C3.62766 10.3635 3.69748 10.5741 3.82861 10.7597C3.95974 10.9453 4.14761 11.0994 4.37356 11.2068ZM18.5756 5.22788L29.0402 10.1488L18.5756 15.0697L8.11093 10.1488L18.5756 5.22788ZM31.2826 14.0486L18.5756 19.9905L5.86851 13.9994C5.69788 13.918 5.50939 13.8653 5.31388 13.8441C5.11837 13.823 4.91972 13.8339 4.72935 13.8762C4.53898 13.9185 4.36067 13.9914 4.20467 14.0906C4.04868 14.1899 3.91809 14.3136 3.82042 14.4545C3.62552 14.737 3.5743 15.0715 3.67792 15.3849C3.78155 15.6984 4.03161 15.9654 4.37356 16.1276L17.8281 22.5248C18.0554 22.6328 18.3132 22.6896 18.5756 22.6896C18.838 22.6896 19.0958 22.6328 19.3231 22.5248L32.7776 16.1276C33.1195 15.9654 33.3696 15.6984 33.4732 15.3849C33.5769 15.0715 33.5256 14.737 33.3307 14.4545C33.2331 14.3136 33.1025 14.1899 32.9465 14.0906C32.7905 13.9914 32.6122 13.9185 32.4218 13.8762C32.2314 13.8339 32.0328 13.823 31.8373 13.8441C31.6418 13.8653 31.4533 13.918 31.2826 13.9994V14.0486ZM31.2826 18.9695L18.5756 24.9114L5.86851 18.9202C5.69788 18.8389 5.50939 18.7861 5.31388 18.765C5.11837 18.7439 4.91972 18.7548 4.72935 18.7971C4.53898 18.8394 4.36067 18.9123 4.20467 19.0115C4.04868 19.1108 3.91809 19.2345 3.82042 19.3754C3.62552 19.6579 3.5743 19.9924 3.67792 20.3058C3.78155 20.6192 4.03161 20.8862 4.37356 21.0485L17.8281 27.4457C18.0554 27.5537 18.3132 27.6105 18.5756 27.6105C18.838 27.6105 19.0958 27.5537 19.3231 27.4457L32.7776 21.0485C33.1195 20.8862 33.3696 20.6192 33.4732 20.3058C33.5769 19.9924 33.5256 19.6579 33.3307 19.3754C33.2331 19.2345 33.1025 19.1108 32.9465 19.0115C32.7905 18.9123 32.6122 18.8394 32.4218 18.7971C32.2314 18.7548 32.0328 18.7439 31.8373 18.765C31.6418 18.7861 31.4533 18.8389 31.2826 18.9202V18.9695Z" fill="#111111" fill-opacity="0.6"/>
</svg>
